# This file uses centimeters as units for non-parametric coordinates.

mtllib RifleBulletCasingPrototype.mtl
g default
v -0.500000 4.500000 0.500000
v 3.537103 4.500000 0.500000
v -0.500000 5.500000 0.500000
v 3.537103 5.500000 0.500000
v -0.500000 5.500000 -0.500000
v 3.537103 5.500000 -0.500000
v -0.500000 4.500000 -0.500000
v 3.537103 4.500000 -0.500000
v 3.741028 4.600000 -0.400000
v 3.741028 4.600000 0.400000
v 3.741028 5.400000 -0.400000
v 3.741028 5.400000 0.400000
v 4.302401 4.600000 -0.400000
v 4.302401 4.600000 0.400000
v 4.302401 5.400000 -0.400000
v 4.302401 5.400000 0.400000
vt 0.375000 0.000000
vt 0.625000 0.000000
vt 0.375000 0.250000
vt 0.625000 0.250000
vt 0.375000 0.500000
vt 0.625000 0.500000
vt 0.375000 0.750000
vt 0.625000 0.750000
vt 0.375000 1.000000
vt 0.625000 1.000000
vt 0.875000 0.000000
vt 0.875000 0.250000
vt 0.125000 0.000000
vt 0.125000 0.250000
vt 0.625000 0.000000
vt 0.875000 0.000000
vt 0.875000 0.250000
vt 0.625000 0.250000
vt 0.625000 0.000000
vt 0.875000 0.000000
vt 0.875000 0.250000
vt 0.625000 0.250000
vn 0.000000 0.000000 1.000000
vn 0.015874 0.000000 0.999874
vn 0.015874 0.000000 0.999874
vn 0.000000 0.000000 1.000000
vn 0.000000 1.000000 0.000000
vn 0.015874 0.999874 0.000000
vn 0.015874 0.999874 0.000000
vn 0.000000 1.000000 0.000000
vn 0.000000 0.000000 -1.000000
vn 0.015874 0.000000 -0.999874
vn 0.015874 0.000000 -0.999874
vn 0.000000 0.000000 -1.000000
vn 0.000000 -1.000000 0.000000
vn 0.015874 -0.999874 0.000000
vn 0.015874 -0.999874 0.000000
vn 0.000000 -1.000000 0.000000
vn 1.000000 0.000000 0.000000
vn 1.000000 0.000000 0.000000
vn 1.000000 0.000000 0.000000
vn 1.000000 0.000000 0.000000
vn -1.000000 0.000000 0.000000
vn -1.000000 0.000000 0.000000
vn -1.000000 0.000000 0.000000
vn -1.000000 0.000000 0.000000
vn 0.164749 -0.986336 0.000000
vn 0.164749 -0.986336 0.000000
vn 0.164749 0.000000 -0.986336
vn 0.164749 0.000000 -0.986336
vn 0.164749 0.986336 0.000000
vn 0.164749 0.986336 0.000000
vn 0.164749 0.000000 0.986336
vn 0.164749 0.000000 0.986336
vn 0.000000 -1.000000 0.000000
vn 0.000000 -1.000000 0.000000
vn 0.000000 0.000000 -1.000000
vn 0.000000 0.000000 -1.000000
vn 0.000000 1.000000 0.000000
vn 0.000000 1.000000 0.000000
vn 0.000000 0.000000 1.000000
vn 0.000000 0.000000 1.000000
s 1
g pCube1
usemtl initialShadingGroup
f 1/1/1 2/2/2 4/4/3 3/3/4
s 2
f 3/3/5 4/4/6 6/6/7 5/5/8
s 3
f 5/5/9 6/6/10 8/8/11 7/7/12
s 4
f 7/7/13 8/8/14 2/10/15 1/9/16
s off
f 14/19/17 13/20/18 15/21/19 16/22/20
f 7/13/21 1/1/22 3/3/23 5/14/24
s 4
f 2/2/15 8/11/14 9/16/25 10/15/26
s 3
f 8/11/11 6/12/10 11/17/27 9/16/28
s 2
f 6/12/7 4/4/6 12/18/29 11/17/30
s 1
f 4/4/3 2/2/2 10/15/31 12/18/32
s 4
f 10/15/26 9/16/25 13/20/33 14/19/34
s 3
f 9/16/28 11/17/27 15/21/35 13/20/36
s 2
f 11/17/30 12/18/29 16/22/37 15/21/38
s 1
f 12/18/32 10/15/31 14/19/39 16/22/40
