# This file uses centimeters as units for non-parametric coordinates.

mtllib PistolPrototype.mtl
g default
v -3.500000 4.500000 0.500000
v 3.500000 4.500000 0.500000
v -3.500000 5.500000 0.500000
v 3.500000 5.500000 0.500000
v -3.500000 5.500000 -0.500000
v 3.500000 5.500000 -0.500000
v -3.500000 4.500000 -0.500000
v 3.500000 4.500000 -0.500000
v -3.500000 4.068585 -0.500000
v 3.500000 4.068585 -0.500000
v 3.500000 4.068585 0.500000
v -3.500000 4.068585 0.500000
v 3.500000 4.500000 -0.500000
v 3.500000 4.500000 0.500000
v 3.500000 5.500000 -0.500000
v 3.500000 5.500000 0.500000
v 3.500000 4.977721 -0.242818
v 3.500000 4.977721 0.242818
v 3.500000 5.383926 -0.242818
v 3.500000 5.383926 0.242818
v 3.500000 4.635467 0.011571
v 3.500000 4.917347 0.012324
v 3.500000 5.175918 -0.313965
v 3.500000 5.173552 -0.500000
v 3.500000 5.168167 0.313965
v 3.500000 5.166415 0.500000
v 3.500000 5.444301 0.002724
v 3.500000 5.500000 0.005013
v 3.697817 4.917347 0.012324
v 3.697817 4.977721 0.242818
v 3.697817 4.977721 -0.242818
v 3.697817 5.175918 -0.313965
v 3.697817 5.383926 -0.242818
v 3.697817 5.444301 0.002724
v 3.697817 5.383926 0.242818
v 3.697817 5.168167 0.313965
v 3.697817 4.957654 0.010003
v 3.697817 5.008792 0.197072
v 3.697817 5.008792 -0.197072
v 3.697817 5.176669 -0.254815
v 3.697817 5.352855 -0.197072
v 3.697817 5.403993 0.002211
v 3.697817 5.352855 0.197072
v 3.697817 5.170104 0.254815
v 3.579135 4.957654 0.010003
v 3.579135 5.008792 0.197072
v 3.579135 5.008792 -0.197072
v 3.579135 5.176669 -0.254815
v 3.579135 5.352855 -0.197072
v 3.579135 5.403993 0.002211
v 3.579135 5.352855 0.197072
v 3.579135 5.170104 0.254815
v 3.500000 4.318298 0.012829
v 3.500000 4.543013 0.184728
v 3.500000 4.406320 0.189345
v 3.500000 4.404396 -0.154038
v 3.500000 4.547391 -0.161117
v 3.500000 4.068585 0.022841
v 3.580218 4.635467 0.011571
v 3.580218 4.543013 0.184728
v 3.580218 4.406320 0.189345
v 3.580218 4.318298 0.012829
v 3.580218 4.404396 -0.154038
v 3.580218 4.547391 -0.161117
v 3.580218 4.532107 0.013418
v 3.580218 4.499912 0.060802
v 3.580218 4.452310 0.062065
v 3.580218 4.421658 0.013762
v 3.580218 4.451640 -0.031900
v 3.580218 4.501436 -0.033837
v 3.538391 4.532107 0.013418
v 3.538391 4.499912 0.060802
v 3.538391 4.452310 0.062065
v 3.538391 4.421658 0.013762
v 3.538391 4.451640 -0.031900
v 3.538391 4.501436 -0.033837
v -3.220622 4.011911 -0.500000
v 0.496932 3.677473 -0.500000
v 0.496932 3.677473 0.022841
v 0.496932 3.677473 0.500000
v -3.220622 4.011911 0.500000
v -2.949043 3.879562 -0.500000
v -0.976560 3.573804 -0.500000
v -0.976560 3.573804 0.022841
v -0.976560 3.573804 0.500000
v -2.949043 3.879562 0.500000
v -2.896896 3.750889 -0.500000
v -0.975429 3.460493 -0.500000
v -0.975429 3.460493 0.022841
v -0.975429 3.460493 0.500000
v -2.896896 3.750889 0.500000
v -3.708260 1.788098 -0.500000
v -1.844853 1.801946 -0.500000
v -1.844853 1.801946 0.022841
v -1.844853 1.801946 0.500000
v -3.708260 1.788098 0.500000
v -3.995371 1.537324 -0.500000
v -2.039691 1.574213 -0.500000
v -2.039691 1.574213 0.022841
v -2.039691 1.574213 0.500000
v -3.995371 1.537324 0.500000
v -4.050475 1.183596 -0.500000
v -1.843983 1.220485 -0.500000
v -1.843983 1.220485 0.022841
v -1.843983 1.220485 0.500000
v -4.050475 1.183596 0.500000
v -3.881224 1.006508 -0.500000
v -1.674732 1.043397 -0.500000
v -1.674732 1.043397 0.022841
v -1.674732 1.043397 0.500000
v -3.881224 1.006508 0.500000
v -3.679080 0.853142 -0.500000
v -1.962732 0.890031 -0.500000
v -1.962732 0.890031 0.022841
v -1.962732 0.890031 0.500000
v -3.679080 0.853142 0.500000
vt 0.375000 0.000000
vt 0.625000 0.000000
vt 0.375000 0.250000
vt 0.625000 0.250000
vt 0.375000 0.500000
vt 0.625000 0.500000
vt 0.375000 0.750000
vt 0.625000 0.750000
vt 0.375000 1.000000
vt 0.625000 1.000000
vt 0.875000 0.000000
vt 0.875000 0.250000
vt 0.125000 0.000000
vt 0.125000 0.250000
vt 0.375000 0.750000
vt 0.625000 0.750000
vt 0.625000 1.000000
vt 0.375000 1.000000
vt 0.625000 0.000000
vt 0.875000 0.000000
vt 0.875000 0.250000
vt 0.625000 0.250000
vt 0.625000 0.000000
vt 0.875000 0.000000
vt 0.875000 0.250000
vt 0.625000 0.250000
vt 0.747107 0.000000
vt 0.743656 0.000000
vt 0.875000 0.128686
vt 0.875000 0.168388
vt 0.625000 0.124336
vt 0.625000 0.166604
vt 0.748598 0.250000
vt 0.748747 0.250000
vt 0.625000 0.000000
vt 0.743656 0.000000
vt 0.875000 0.000000
vt 0.875000 0.128686
vt 0.875000 0.250000
vt 0.748598 0.250000
vt 0.625000 0.250000
vt 0.625000 0.124336
vt 0.625000 0.000000
vt 0.743656 0.000000
vt 0.875000 0.000000
vt 0.875000 0.128686
vt 0.875000 0.250000
vt 0.748598 0.250000
vt 0.625000 0.250000
vt 0.625000 0.124336
vt 0.625000 0.000000
vt 0.743656 0.000000
vt 0.875000 0.000000
vt 0.875000 0.128686
vt 0.875000 0.250000
vt 0.748598 0.250000
vt 0.625000 0.250000
vt 0.625000 0.124336
vt 0.625000 0.875499
vt 0.749501 0.000000
vt 0.694151 0.000000
vt 0.625000 0.933878
vt 0.691122 0.000000
vt 0.625000 0.821957
vt 0.803043 0.000000
vt 0.799947 0.000000
vt 0.625000 0.880710
vt 0.747107 0.000000
vt 0.694151 0.000000
vt 0.691122 0.000000
vt 0.749501 0.000000
vt 0.803043 0.000000
vt 0.799947 0.000000
vt 0.747107 0.000000
vt 0.694151 0.000000
vt 0.691122 0.000000
vt 0.749501 0.000000
vt 0.803043 0.000000
vt 0.799947 0.000000
vt 0.747107 0.000000
vt 0.694151 0.000000
vt 0.691122 0.000000
vt 0.749501 0.000000
vt 0.803043 0.000000
vt 0.799947 0.000000
vt 0.375000 0.750000
vt 0.625000 0.750000
vt 0.625000 0.880710
vt 0.625000 1.000000
vt 0.375000 1.000000
vt 0.375000 0.750000
vt 0.625000 0.750000
vt 0.625000 0.880710
vt 0.625000 1.000000
vt 0.375000 1.000000
vt 0.375000 0.750000
vt 0.625000 0.750000
vt 0.625000 0.880710
vt 0.625000 1.000000
vt 0.375000 1.000000
vt 0.375000 0.750000
vt 0.625000 0.750000
vt 0.625000 0.880710
vt 0.625000 1.000000
vt 0.375000 1.000000
vt 0.375000 0.750000
vt 0.625000 0.750000
vt 0.625000 0.880710
vt 0.625000 1.000000
vt 0.375000 1.000000
vt 0.375000 0.750000
vt 0.625000 0.750000
vt 0.625000 0.880710
vt 0.625000 1.000000
vt 0.375000 1.000000
vt 0.375000 0.750000
vt 0.625000 0.750000
vt 0.625000 0.880710
vt 0.625000 1.000000
vt 0.375000 1.000000
vt 0.375000 0.750000
vt 0.625000 0.750000
vt 0.625000 0.880710
vt 0.625000 1.000000
vt 0.375000 1.000000
vn -0.000000 0.000000 1.000000
vn -0.000000 0.000000 1.000000
vn 0.000000 0.000000 1.000000
vn 0.000000 0.000000 1.000000
vn 0.000000 1.000000 0.000000
vn 0.000000 1.000000 0.000000
vn 0.000000 1.000000 0.000000
vn 0.000000 1.000000 0.000000
vn 0.000000 0.000000 -1.000000
vn 0.000000 0.000000 -1.000000
vn -0.000000 0.000000 -1.000000
vn -0.000000 0.000000 -1.000000
vn 0.021488 -0.999769 0.000000
vn 0.021488 -0.999769 0.000000
vn 0.021488 -0.999769 0.000000
vn 0.021488 -0.999769 0.000000
vn 0.021488 -0.999769 0.000000
vn 1.000000 0.000000 0.000000
vn 1.000000 0.000000 0.000000
vn 1.000000 0.000000 0.000000
vn 1.000000 0.000000 0.000000
vn 1.000000 0.000000 0.000000
vn 1.000000 0.000000 0.000000
vn 1.000000 0.000000 0.000000
vn 1.000000 0.000000 0.000000
vn -1.000000 0.000000 0.000000
vn -1.000000 0.000000 0.000000
vn -1.000000 0.000000 0.000000
vn -1.000000 0.000000 0.000000
vn -0.000000 0.000000 -1.000000
vn -0.000000 0.000000 -1.000000
vn 1.000000 0.000000 0.000000
vn 1.000000 0.000000 0.000000
vn 1.000000 0.000000 0.000000
vn 1.000000 0.000000 0.000000
vn 1.000000 0.000000 0.000000
vn -0.000000 0.000000 1.000000
vn -0.000000 0.000000 1.000000
vn -1.000000 0.000000 0.000000
vn -1.000000 0.000000 0.000000
vn 1.000000 0.000002 0.000000
vn 1.000000 0.000002 0.000000
vn 1.000000 0.000002 0.000000
vn 1.000000 0.000002 0.000000
vn 1.000000 0.000002 0.000000
vn 1.000000 0.000002 0.000000
vn 0.000000 0.000000 0.000000
vn 0.000000 0.000000 0.000000
vn 0.000000 0.000000 0.000000
vn 0.000000 0.000000 0.000000
vn 0.000000 0.000000 0.000000
vn 0.000000 0.000000 0.000000
vn 0.000000 0.000000 0.000000
vn 0.000000 0.000000 0.000000
vn 0.000000 0.000000 0.000000
vn 0.000000 0.000000 0.000000
vn 0.000000 0.000000 0.000000
vn 0.000000 0.000000 0.000000
vn 0.000000 0.000000 0.000000
vn 0.000000 0.000000 0.000000
vn 0.000000 0.000000 0.000000
vn 1.000000 0.000000 0.000000
vn 1.000000 0.000000 0.000000
vn 1.000000 0.000000 0.000000
vn 1.000000 0.000000 0.000000
vn 1.000000 0.000000 0.000000
vn 1.000000 0.000000 0.000000
vn 1.000000 0.000000 0.000000
vn 1.000000 0.000000 0.000000
vn 1.000000 0.000000 0.000000
vn 1.000000 0.000000 0.000000
vn 1.000000 0.000000 0.000000
vn 1.000000 0.000000 0.000000
vn 1.000000 0.000000 0.000000
vn 1.000000 0.000000 0.000000
vn 1.000000 0.000000 0.000000
vn 1.000000 0.000000 0.000000
vn 1.000000 0.000000 0.000000
vn 1.000000 0.000000 0.000000
vn 1.000000 0.000000 0.000000
vn 1.000000 0.000000 0.000000
vn 1.000000 0.000000 0.000000
vn 1.000000 0.000000 0.000000
vn 1.000000 0.000000 0.000000
vn 1.000000 0.000000 0.000000
vn 1.000000 0.000000 0.000000
vn 1.000000 0.000000 0.000000
vn 0.000000 -0.967365 0.253387
vn 0.000000 -1.000000 0.000000
vn 0.000000 -1.000000 0.000000
vn 0.000000 -0.967365 0.253387
vn 0.000000 -0.973127 -0.230271
vn 0.000000 -0.973127 -0.230271
vn 0.000000 -0.337863 -0.941195
vn 0.000000 -0.337863 -0.941195
vn 0.000000 -0.337863 -0.941195
vn 0.000000 -0.337863 -0.941195
vn 0.000000 0.323633 -0.946183
vn 0.000000 0.323633 -0.946183
vn 0.000000 0.323633 -0.946183
vn 0.000000 0.323633 -0.946183
vn 0.000000 0.971076 -0.238770
vn 0.000000 1.000000 0.000000
vn 0.000000 1.000000 0.000000
vn 0.000000 0.971076 -0.238770
vn 0.000000 0.969808 0.243869
vn 0.000000 0.969808 0.243869
vn 0.000000 0.313166 0.949698
vn 0.000000 0.313166 0.949698
vn 0.000000 0.313166 0.949698
vn 0.000000 0.313166 0.949698
vn 0.000000 -0.349959 0.936765
vn 0.000000 -0.349959 0.936765
vn 0.000000 -0.349959 0.936765
vn 0.000000 -0.349959 0.936765
vn 1.000000 0.000004 0.000000
vn 1.000000 0.000004 0.000000
vn 1.000000 0.000004 0.000000
vn 1.000000 0.000004 0.000000
vn 1.000000 -0.000008 0.000000
vn 1.000000 -0.000008 0.000000
vn 1.000000 -0.000008 0.000000
vn 1.000000 -0.000008 0.000000
vn 1.000000 0.000001 0.000000
vn 1.000000 0.000001 0.000000
vn 1.000000 0.000001 0.000000
vn 1.000000 0.000001 0.000000
vn 1.000000 -0.000002 0.000000
vn 1.000000 -0.000002 0.000000
vn 1.000000 -0.000002 0.000000
vn 1.000000 -0.000002 0.000000
vn 1.000000 0.000001 0.000000
vn 1.000000 0.000001 0.000000
vn 1.000000 0.000001 0.000000
vn 1.000000 0.000001 0.000000
vn 1.000000 -0.000005 0.000000
vn 1.000000 -0.000005 0.000000
vn 1.000000 -0.000005 0.000000
vn 1.000000 -0.000005 0.000000
vn 1.000000 -0.000001 0.000000
vn 1.000000 -0.000001 0.000000
vn 1.000000 -0.000001 0.000000
vn 1.000000 -0.000001 0.000000
vn 1.000000 0.000003 0.000000
vn 1.000000 0.000003 0.000000
vn 1.000000 0.000003 0.000000
vn 1.000000 0.000003 0.000000
vn 0.000000 0.964608 -0.263689
vn 0.000000 1.000000 -0.000000
vn 0.000000 1.000000 -0.000000
vn 0.000000 0.964608 -0.263689
vn 0.000000 0.970834 0.239752
vn 0.000000 0.970834 0.239752
vn 0.000000 0.325260 0.945625
vn 0.000000 0.325260 0.945625
vn 0.000000 0.325260 0.945625
vn 0.000000 0.325260 0.945625
vn 0.000000 -0.311439 0.950266
vn 0.000000 -0.311439 0.950266
vn 0.000000 -0.311439 0.950266
vn 0.000000 -0.311439 0.950266
vn 0.000000 -0.968617 0.248557
vn 0.000000 -1.000000 0.000000
vn 0.000000 -1.000000 0.000000
vn 0.000000 -0.968617 0.248557
vn 0.000000 -0.967247 -0.253838
vn 0.000000 -0.967247 -0.253838
vn 0.000000 -0.301284 -0.953534
vn 0.000000 -0.301284 -0.953534
vn 0.000000 -0.301284 -0.953534
vn 0.000000 -0.301284 -0.953534
vn 0.000000 0.337020 -0.941498
vn 0.000000 0.337020 -0.941498
vn 0.000000 0.337020 -0.941498
vn 0.000000 0.337020 -0.941498
vn 0.000000 0.000000 0.000000
vn 1.000000 0.000000 0.000000
vn 1.000000 0.000000 0.000000
vn 0.000000 0.000000 0.000000
vn 1.000000 0.000000 0.000000
vn 1.000000 0.000000 0.000000
vn 0.000000 0.000000 0.000000
vn 0.000000 0.000000 0.000000
vn 1.000000 0.000000 0.000000
vn 1.000000 0.000000 0.000000
vn 1.000000 0.000000 0.000000
vn 0.000000 0.882134 0.470999
vn 0.000000 0.882134 0.470999
vn 0.000000 0.882134 0.470999
vn 0.000000 0.882134 0.470999
vn 0.000000 0.033759 0.999430
vn 0.000000 0.033759 0.999430
vn 0.000000 0.033759 0.999430
vn 0.000000 0.033759 0.999430
vn 0.000000 -0.894906 0.446254
vn 0.000000 -0.894906 0.446254
vn 0.000000 -0.894906 0.446254
vn 0.000000 -0.894906 0.446254
vn 0.000000 -0.888681 -0.458526
vn 0.000000 -0.888681 -0.458526
vn 0.000000 -0.888681 -0.458526
vn 0.000000 -0.888681 -0.458526
vn 0.000000 -0.049441 -0.998777
vn 0.000000 -0.049441 -0.998777
vn 0.000000 -0.049441 -0.998777
vn 0.000000 -0.049441 -0.998777
vn 0.000000 0.890825 -0.454347
vn 0.000000 0.890825 -0.454347
vn 0.000000 0.890825 -0.454347
vn 0.000000 0.890825 -0.454347
vn 1.000000 -0.000003 0.000000
vn 1.000000 -0.000003 0.000000
vn 1.000000 -0.000003 0.000000
vn 1.000000 -0.000003 0.000000
vn 1.000000 0.000000 0.000000
vn 1.000000 0.000000 0.000000
vn 1.000000 0.000000 0.000000
vn 1.000000 0.000000 0.000000
vn 1.000000 -0.000004 0.000000
vn 1.000000 -0.000004 0.000000
vn 1.000000 -0.000004 0.000000
vn 1.000000 -0.000004 0.000000
vn 1.000000 0.000001 0.000000
vn 1.000000 0.000001 0.000000
vn 1.000000 0.000001 0.000000
vn 1.000000 0.000001 0.000000
vn 1.000000 0.000002 0.000000
vn 1.000000 0.000002 0.000000
vn 1.000000 0.000002 0.000000
vn 1.000000 0.000002 0.000000
vn 1.000000 -0.000004 0.000000
vn 1.000000 -0.000004 0.000000
vn 1.000000 -0.000004 0.000000
vn 1.000000 -0.000004 0.000000
vn 0.000000 -0.827131 -0.562010
vn 0.000000 -0.827131 -0.562010
vn 0.000000 -0.827131 -0.562010
vn 0.000000 -0.827131 -0.562010
vn 0.000000 -0.026534 -0.999648
vn 0.000000 -0.026534 -0.999648
vn 0.000000 -0.026534 -0.999648
vn 0.000000 -0.026534 -0.999648
vn 0.000000 0.844342 -0.535804
vn 0.000000 0.844342 -0.535804
vn 0.000000 0.844342 -0.535804
vn 0.000000 0.844342 -0.535804
vn 0.000000 0.835912 0.548863
vn 0.000000 0.835912 0.548863
vn 0.000000 0.835912 0.548863
vn 0.000000 0.835912 0.548863
vn 0.000000 0.038871 0.999244
vn 0.000000 0.038871 0.999244
vn 0.000000 0.038871 0.999244
vn 0.000000 0.038871 0.999244
vn 0.000000 -0.838805 0.544431
vn 0.000000 -0.838805 0.544431
vn 0.000000 -0.838805 0.544431
vn 0.000000 -0.838805 0.544431
vn -0.000000 0.000000 -1.000000
vn -0.000000 0.000000 -1.000000
vn -0.000000 0.000000 -1.000000
vn -0.000000 0.000000 -1.000000
vn 0.129147 -0.991625 0.000000
vn 0.129147 -0.991625 0.000000
vn 0.129147 -0.991625 0.000000
vn 0.129147 -0.991625 0.000000
vn 0.129147 -0.991625 0.000000
vn 0.129147 -0.991625 0.000000
vn 0.129147 -0.991625 0.000000
vn 0.129147 -0.991625 0.000000
vn -0.000000 0.000000 1.000000
vn -0.000000 0.000000 1.000000
vn -0.000000 0.000000 1.000000
vn -0.000000 0.000000 1.000000
vn -0.198806 -0.980039 0.000000
vn -0.198806 -0.980039 0.000000
vn -0.198806 -0.980039 0.000000
vn -0.198806 -0.980039 0.000000
vn -0.000000 0.000000 -1.000000
vn -0.000000 0.000000 -1.000000
vn 0.070183 -0.997534 0.000000
vn 0.070183 -0.997534 0.000000
vn 0.145794 -0.989315 0.000000
vn 0.145794 -0.989315 0.000000
vn 0.070183 -0.997534 0.000000
vn 0.145794 -0.989315 0.000000
vn -0.000000 0.000000 1.000000
vn -0.000000 0.000000 1.000000
vn -0.438080 -0.898936 0.000000
vn -0.438080 -0.898936 0.000000
vn -0.627685 -0.778468 0.000000
vn -0.627685 -0.778468 0.000000
vn -0.000000 0.000000 -1.000000
vn -0.000000 0.000000 -1.000000
vn 0.897974 -0.440049 0.000000
vn 0.897974 -0.440049 0.000000
vn 0.897974 -0.440049 0.000000
vn -0.000000 0.000000 1.000000
vn -0.000000 0.000000 1.000000
vn -0.939983 0.341221 0.000000
vn -0.939983 0.341221 0.000000
vn -0.000000 0.000000 -1.000000
vn -0.000000 0.000000 -1.000000
vn 0.870938 -0.491394 0.000000
vn 0.870938 -0.491394 0.000000
vn 0.870938 -0.491394 0.000000
vn -0.000000 0.000000 1.000000
vn -0.000000 0.000000 1.000000
vn -0.895768 0.444522 0.000000
vn -0.895768 0.444522 0.000000
vn -0.000000 0.000000 -1.000000
vn -0.000000 0.000000 -1.000000
vn 0.999999 0.001496 0.000000
vn 0.999999 0.001496 0.000000
vn 0.999999 0.001496 0.000000
vn -0.000000 0.000000 1.000000
vn -0.000000 0.000000 1.000000
vn -0.870229 0.492647 0.000000
vn -0.870229 0.492647 0.000000
vn -0.000000 -0.000000 -1.000000
vn -0.000000 -0.000000 -1.000000
vn 0.824026 0.566552 0.000000
vn 0.824026 0.566552 0.000000
vn 0.824026 0.566552 0.000000
vn -0.000000 -0.000000 1.000000
vn -0.000000 -0.000000 1.000000
vn -0.977651 -0.210235 0.000000
vn -0.977651 -0.210235 0.000000
vn -0.000000 -0.000000 -1.000000
vn -0.000000 -0.000000 -1.000000
vn 0.941082 -0.338179 0.000000
vn 0.941082 -0.338179 0.000000
vn 0.941082 -0.338178 0.000000
vn -0.000000 -0.000000 1.000000
vn -0.000000 -0.000000 1.000000
vn -0.664729 -0.747084 0.000000
vn -0.664729 -0.747084 0.000000
vn -0.000000 0.000000 -1.000000
vn -0.000000 0.000000 -1.000000
vn 0.470031 -0.882650 0.000000
vn 0.470031 -0.882650 0.000000
vn 0.470031 -0.882650 0.000000
vn -0.000000 0.000000 1.000000
vn -0.000000 0.000000 1.000000
vn -0.604426 -0.796661 0.000000
vn -0.604426 -0.796661 0.000000
s 1
g pCube1
usemtl initialShadingGroup
f 1/1/1 2/2/2 4/4/3 3/3/4
s off
f 3/3/5 4/4/6 6/6/7 5/5/8
s 2
f 5/5/9 6/6/10 8/8/11 7/7/12
s off
f 112/121/13 113/122/14 114/123/15 115/124/16 116/125/17
f 46/51/18 45/52/19 47/53/20 48/54/21 49/55/22 50/56/23 51/57/24 52/58/25
s 3
f 7/13/26 1/1/27 3/3/28 5/14/29
s 2
f 7/7/12 8/8/11 10/16/30 9/15/31
s 4
f 58/67/32 53/59/33 55/62/34 2/10/35 11/17/36
s 1
f 2/10/2 1/9/1 12/18/37 11/17/38
s 3
f 1/9/27 7/7/26 9/15/39 12/18/40
s off
f 71/80/41 72/81/42 73/82/43 74/83/44 75/84/45 76/85/46
f 8/11/47 6/12/48 15/21/49 24/30/50 13/20/51
f 6/12/52 4/4/53 16/22/54 28/34/55 15/21/56
f 4/4/57 2/2/58 14/19/59 26/32/60 16/22/61
s 5
f 14/19/62 54/61/63 21/27/64 22/28/65 18/23/66
s 6
f 23/29/67 24/30/68 15/21/69 19/25/70
s 7
f 27/33/71 28/34/72 16/22/73 20/26/74
s 8
f 25/31/75 26/32/76 14/19/77 18/23/78
s 5
f 22/28/65 21/27/64 57/66/79 13/20/80 17/24/81
s 6
f 13/20/82 24/30/68 23/29/67 17/24/83
s 8
f 16/22/84 26/32/76 25/31/75 20/26/85
s 7
f 15/21/86 28/34/72 27/33/71 19/25/87
s 9
f 18/23/88 22/28/89 29/36/90 30/35/91
f 22/28/89 17/24/92 31/37/93 29/36/90
s off
f 17/24/94 23/29/95 32/38/96 31/37/97
f 23/29/98 19/25/99 33/39/100 32/38/101
s 10
f 19/25/102 27/33/103 34/40/104 33/39/105
f 27/33/103 20/26/106 35/41/107 34/40/104
s off
f 20/26/108 25/31/109 36/42/110 35/41/111
f 25/31/112 18/23/113 30/35/114 36/42/115
f 30/35/116 29/36/117 37/44/118 38/43/119
f 29/36/120 31/37/121 39/45/122 37/44/123
f 31/37/124 32/38/125 40/46/126 39/45/127
f 32/38/128 33/39/129 41/47/130 40/46/131
f 33/39/132 34/40/133 42/48/134 41/47/135
f 34/40/136 35/41/137 43/49/138 42/48/139
f 35/41/140 36/42/141 44/50/142 43/49/143
f 36/42/144 30/35/145 38/43/146 44/50/147
s 11
f 38/43/148 37/44/149 45/52/150 46/51/151
f 37/44/149 39/45/152 47/53/153 45/52/150
s off
f 39/45/154 40/46/155 48/54/156 47/53/157
f 40/46/158 41/47/159 49/55/160 48/54/161
s 12
f 41/47/162 42/48/163 50/56/164 49/55/165
f 42/48/163 43/49/166 51/57/167 50/56/164
s off
f 43/49/168 44/50/169 52/58/170 51/57/171
f 44/50/172 38/43/173 46/51/174 52/58/175
f 2/2/176 55/63/177 54/61/178 14/19/179
f 57/66/180 56/65/181 8/11/182 13/20/183
s 4
f 8/8/184 56/64/185 53/59/33 58/67/32 10/16/186
s off
f 21/27/187 54/61/188 60/69/189 59/68/190
f 54/61/191 55/63/192 61/70/193 60/69/194
f 55/63/195 53/60/196 62/71/197 61/70/198
f 53/60/199 56/65/200 63/72/201 62/71/202
f 56/65/203 57/66/204 64/73/205 63/72/206
f 57/66/207 21/27/208 59/68/209 64/73/210
f 59/68/211 60/69/212 66/75/213 65/74/214
f 60/69/215 61/70/216 67/76/217 66/75/218
f 61/70/219 62/71/220 68/77/221 67/76/222
f 62/71/223 63/72/224 69/78/225 68/77/226
f 63/72/227 64/73/228 70/79/229 69/78/230
f 64/73/231 59/68/232 65/74/233 70/79/234
f 65/74/235 66/75/236 72/81/237 71/80/238
f 66/75/239 67/76/240 73/82/241 72/81/242
f 67/76/243 68/77/244 74/83/245 73/82/246
f 68/77/247 69/78/248 75/84/249 74/83/250
f 69/78/251 70/79/252 76/85/253 75/84/254
f 70/79/255 65/74/256 71/80/257 76/85/258
s 13
f 9/15/259 10/16/260 78/87/261 77/86/262
s off
f 10/16/263 58/67/264 79/88/265 78/87/266
f 58/67/267 11/17/268 80/89/269 79/88/270
s 14
f 11/17/271 12/18/272 81/90/273 80/89/274
s off
f 12/18/275 9/15/276 77/86/277 81/90/278
s 13
f 77/86/262 78/87/261 83/92/279 82/91/280
s 15
f 78/87/281 79/88/282 84/93/283 83/92/284
f 79/88/282 80/89/285 85/94/286 84/93/283
s 14
f 80/89/274 81/90/273 86/95/287 85/94/288
s 16
f 81/90/289 77/86/290 82/91/291 86/95/292
s 13
f 82/91/280 83/92/279 88/97/293 87/96/294
s 15
f 83/92/284 84/93/283 89/98/295 88/97/296
f 84/93/283 85/94/286 90/99/297 89/98/295
s 14
f 85/94/288 86/95/287 91/100/298 90/99/299
s 16
f 86/95/292 82/91/291 87/96/300 91/100/301
s 13
f 87/96/294 88/97/293 93/102/302 92/101/303
s 15
f 88/97/296 89/98/295 94/103/304 93/102/305
f 89/98/295 90/99/297 95/104/306 94/103/304
s 14
f 90/99/299 91/100/298 96/105/307 95/104/308
s 16
f 91/100/301 87/96/300 92/101/309 96/105/310
s 13
f 92/101/303 93/102/302 98/107/311 97/106/312
s 15
f 93/102/305 94/103/304 99/108/313 98/107/314
f 94/103/304 95/104/306 100/109/315 99/108/313
s 14
f 95/104/308 96/105/307 101/110/316 100/109/317
s 16
f 96/105/310 92/101/309 97/106/318 101/110/319
s 13
f 97/106/312 98/107/311 103/112/320 102/111/321
s 15
f 98/107/314 99/108/313 104/113/322 103/112/323
f 99/108/313 100/109/315 105/114/324 104/113/322
s 14
f 100/109/317 101/110/316 106/115/325 105/114/326
s 16
f 101/110/319 97/106/318 102/111/327 106/115/328
s 13
f 102/111/321 103/112/320 108/117/329 107/116/330
s 15
f 103/112/323 104/113/322 109/118/331 108/117/332
f 104/113/322 105/114/324 110/119/333 109/118/331
s 14
f 105/114/326 106/115/325 111/120/334 110/119/335
s 16
f 106/115/328 102/111/327 107/116/336 111/120/337
s 13
f 107/116/330 108/117/329 113/122/338 112/121/339
s 15
f 108/117/332 109/118/331 114/123/340 113/122/341
f 109/118/331 110/119/333 115/124/342 114/123/340
s 14
f 110/119/335 111/120/334 116/125/343 115/124/344
s 16
f 111/120/337 107/116/336 112/121/345 116/125/346
